{
  "accessors": [
    {
      "bufferView": 0,
      "componentType": 5126,
      "count": 4560,
      "type": "VEC3",
      "max": [
        -0.0046673198230564594,
        0.0095547968521714211,
        0.0051305079832673073
      ],
      "min": [
        -0.005553646944463253,
        0.0088829342275857925,
        0.0036070435307919979
      ]
    },
    {
      "bufferView": 1,
      "componentType": 5126,
      "count": 4560,
      "type": "VEC3",
      "max": [
        1.0,
        1.0,
        1.0
      ],
      "min": [
        -1.0,
        -1.0,
        -1.0
      ]
    },
    {
      "bufferView": 2,
      "componentType": 5126,
      "count": 4560,
      "type": "VEC4",
      "max": [
        1.0,
        0.0,
        0.0,
        1.0
      ],
      "min": [
        1.0,
        0.0,
        0.0,
        1.0
      ]
    },
    {
      "bufferView": 3,
      "componentType": 5126,
      "count": 4560,
      "type": "VEC4",
      "max": [
        0.0,
        0.0,
        0.0,
        1.0
      ],
      "min": [
        0.0,
        0.0,
        0.0,
        1.0
      ]
    },
    {
      "bufferView": 4,
      "componentType": 5123,
      "count": 25704,
      "type": "SCALAR",
      "max": [
        4559.0
      ],
      "min": [
        0.0
      ]
    }
  ],
  "asset": {
    "version": "2.0"
  },
  "buffers": [
    {
      "uri": "bug10.bin",
      "byteLength": 306768
    }
  ],
  "bufferViews": [
    {
      "buffer": 0,
      "byteLength": 54720
    },
    {
      "buffer": 0,
      "byteOffset": 54720,
      "byteLength": 54720
    },
    {
      "buffer": 0,
      "byteOffset": 109440,
      "byteLength": 72960
    },
    {
      "buffer": 0,
      "byteOffset": 182400,
      "byteLength": 72960
    },
    {
      "buffer": 0,
      "byteOffset": 255360,
      "byteLength": 51408
    }
  ],
  "materials": [
    {
      "pbrMetallicRoughness": {
        "baseColorFactor": [
          0.8,
          0.8,
          0.8,
          1.0
        ],
        "metallicFactor": 0.0
      },
      "emissiveFactor": [
        0.0,
        0.0,
        0.0
      ],
      "name": "Paint_single"
    }
  ],
  "meshes": [
    {
      "primitives": [
        {
          "attributes": {
            "POSITION": 0,
            "NORMAL": 1,
            "TANGENT": 2,
            "COLOR_0": 3
          },
          "indices": 4,
          "material": 0
        }
      ],
      "name": "Paint"
    }
  ],
  "nodes": [
    {
      "children": [
        1,
        4
      ],
      "rotation": [
        0.0,
        0.0,
        0.0,
        -1.0
      ],
      "name": "bug10"
    },
    {
      "children": [
        2
      ],
      "rotation": [
        0.0,
        0.0,
        0.0,
        -1.0
      ],
      "name": "BakedMesh"
    },
    {
      "children": [
        3
      ],
      "rotation": [
        0.0,
        0.0,
        0.0,
        -1.0
      ],
      "name": "Root"
    },
    {
      "mesh": 0,
      "rotation": [
        0.0,
        0.0,
        0.0,
        -1.0
      ],
      "name": "Paint"
    },
    {
      "children": [
        5
      ],
      "rotation": [
        0.0,
        0.0,
        0.0,
        -1.0
      ],
      "name": "SourceData"
    },
    {
      "children": [
        6
      ],
      "rotation": [
        0.0,
        0.0,
        0.0,
        -1.0
      ],
      "name": "Root 1"
    },
    {
      "children": [
        7
      ],
      "rotation": [
        0.0,
        0.0,
        0.0,
        -1.0
      ],
      "name": "Paint 1"
    },
    {
      "rotation": [
        0.0,
        0.0,
        0.0,
        -1.0
      ],
      "name": "Paint_0000 1"
    }
  ],
  "scene": 0,
  "scenes": [
    {
      "nodes": [
        0
      ],
      "name": "bug10"
    }
  ]
}