{
  "accessors": [
    {
      "bufferView": 0,
      "componentType": 5126,
      "count": 2042,
      "type": "VEC3",
      "max": [
        -0.0058830045163631439,
        0.0094303274527192116,
        -0.0049983877688646317
      ],
      "min": [
        -0.0065558617934584618,
        0.0082914093509316444,
        -0.0057877064682543278
      ]
    },
    {
      "bufferView": 1,
      "componentType": 5126,
      "count": 2042,
      "type": "VEC3",
      "max": [
        1.0,
        1.0,
        1.0
      ],
      "min": [
        -1.0,
        -1.0,
        -1.0
      ]
    },
    {
      "bufferView": 2,
      "componentType": 5126,
      "count": 2042,
      "type": "VEC4",
      "max": [
        1.0,
        0.0,
        0.0,
        1.0
      ],
      "min": [
        1.0,
        0.0,
        0.0,
        1.0
      ]
    },
    {
      "bufferView": 3,
      "componentType": 5126,
      "count": 2042,
      "type": "VEC4",
      "max": [
        0.0,
        0.0,
        0.0,
        1.0
      ],
      "min": [
        0.0,
        0.0,
        0.0,
        1.0
      ]
    },
    {
      "bufferView": 4,
      "componentType": 5123,
      "count": 11970,
      "type": "SCALAR",
      "max": [
        2041.0
      ],
      "min": [
        0.0
      ]
    }
  ],
  "asset": {
    "version": "2.0"
  },
  "buffers": [
    {
      "uri": "bug7.bin",
      "byteLength": 138292
    }
  ],
  "bufferViews": [
    {
      "buffer": 0,
      "byteLength": 24504
    },
    {
      "buffer": 0,
      "byteOffset": 24504,
      "byteLength": 24504
    },
    {
      "buffer": 0,
      "byteOffset": 49008,
      "byteLength": 32672
    },
    {
      "buffer": 0,
      "byteOffset": 81680,
      "byteLength": 32672
    },
    {
      "buffer": 0,
      "byteOffset": 114352,
      "byteLength": 23940
    }
  ],
  "materials": [
    {
      "pbrMetallicRoughness": {
        "baseColorFactor": [
          0.8,
          0.8,
          0.8,
          1.0
        ],
        "metallicFactor": 0.0
      },
      "emissiveFactor": [
        0.0,
        0.0,
        0.0
      ],
      "name": "Paint_single"
    }
  ],
  "meshes": [
    {
      "primitives": [
        {
          "attributes": {
            "POSITION": 0,
            "NORMAL": 1,
            "TANGENT": 2,
            "COLOR_0": 3
          },
          "indices": 4,
          "material": 0
        }
      ],
      "name": "Paint"
    }
  ],
  "nodes": [
    {
      "children": [
        1,
        4
      ],
      "rotation": [
        0.0,
        0.0,
        0.0,
        -1.0
      ],
      "name": "bug7"
    },
    {
      "children": [
        2
      ],
      "rotation": [
        0.0,
        0.0,
        0.0,
        -1.0
      ],
      "name": "BakedMesh"
    },
    {
      "children": [
        3
      ],
      "rotation": [
        0.0,
        0.0,
        0.0,
        -1.0
      ],
      "name": "Root"
    },
    {
      "mesh": 0,
      "rotation": [
        0.0,
        0.0,
        0.0,
        -1.0
      ],
      "name": "Paint"
    },
    {
      "children": [
        5
      ],
      "rotation": [
        0.0,
        0.0,
        0.0,
        -1.0
      ],
      "name": "SourceData"
    },
    {
      "children": [
        6
      ],
      "rotation": [
        0.0,
        0.0,
        0.0,
        -1.0
      ],
      "name": "Root 1"
    },
    {
      "children": [
        7
      ],
      "rotation": [
        0.0,
        0.0,
        0.0,
        -1.0
      ],
      "name": "Paint 1"
    },
    {
      "rotation": [
        0.0,
        0.0,
        0.0,
        -1.0
      ],
      "name": "Paint_0000 1"
    }
  ],
  "scene": 0,
  "scenes": [
    {
      "nodes": [
        0
      ],
      "name": "bug7"
    }
  ]
}