{
 "accessors": [
  {
   "componentType": 5126,
   "type": "VEC3",
   "count": 360,
   "max": [
    0.42559629678726196,
    0.6461693048477173,
    0.41395920515060425
   ],
   "min": [
    -0.2799207866191864,
    -0.12081129848957062,
    -0.3861730098724365
   ],
   "bufferView": 2
  },
  {
   "componentType": 5126,
   "type": "VEC3",
   "count": 360,
   "bufferView": 3
  },
  {
   "componentType": 5126,
   "type": "VEC2",
   "count": 360,
   "bufferView": 4
  },
  {
   "componentType": 5123,
   "type": "SCALAR",
   "count": 501,
   "bufferView": 5
  }
 ],
 "asset": {
  "version": "2.0",
  "generator": "clara.io"
 },
 "bufferViews": [
  {
   "buffer": 0,
   "byteOffset": 0,
   "byteLength": 2149562
  },
  {
   "buffer": 0,
   "byteOffset": 2149564,
   "byteLength": 157998
  },
  {
   "buffer": 0,
   "byteOffset": 2307564,
   "byteLength": 4320,
   "target": 34962,
   "byteStride": 12
  },
  {
   "buffer": 0,
   "byteOffset": 2311884,
   "byteLength": 4320,
   "target": 34962,
   "byteStride": 12
  },
  {
   "buffer": 0,
   "byteOffset": 2316204,
   "byteLength": 2880,
   "target": 34962,
   "byteStride": 8
  },
  {
   "buffer": 0,
   "byteOffset": 2319084,
   "byteLength": 1002,
   "target": 34963
  }
 ],
 "buffers": [
  {
   "byteLength": 2320088,
   "uri": "data:application/octet-stream;base64,"
  }
 ],
 "images": [
  {
   "name": "BASE_OPACITY_100.png",
   "bufferView": 0,
   "mimeType": "image/png"
  },
  {
   "name": "AO_ROUGH_METAL_101.jpg",
   "bufferView": 1,
   "mimeType": "image/jpeg"
  }
 ],
 "materials": [
  {
   "name": "name0Mat",
   "pbrMetallicRoughness": {
    "baseColorFactor": [
     0.8,
     0.8,
     0.8,
     1
    ],
    "baseColorTexture": {
     "index": 0,
     "texCoord": 0
    },
    "roughnessFactor": 0.3015,
    "metallicFactor": 0,
    "metallicRoughnessTexture": {
     "index": 1
    }
   },
   "emissiveFactor": [
    0.9450980392156862,
    0.2627450980392157,
    0.06274509803921569
   ],
   "alphaMode": "BLEND"
  }
 ],
 "meshes": [
  {
   "primitives": [
    {
     "indices": 3,
     "material": 0,
     "mode": 4,
     "attributes": {
      "POSITION": 0,
      "NORMAL": 1,
      "TEXCOORD_0": 2
     }
    }
   ]
  }
 ],
 "nodes": [
  {
   "name": "butterfly_root",
   "translation": [
    -0.0008999999845400453,
    0,
    0.00019999999494757503
   ],
   "scale": [
    0.009999999776482582,
    0.009999999776482582,
    0.009999999776482582
   ],
   "children": [
    1
   ]
  },
  {
   "name": "name0",
   "translation": [
    -0.013299999758601189,
    0,
    -0.10260000079870224
   ],
   "rotation": [
    0.1920882306603753,
    0.41193455232893156,
    0.1920882306603753,
    0.8697782170898618
   ],
   "scale": [
    29.999998885493653,
    30.000000418066882,
    29.999998550469925
   ],
   "mesh": 0
  }
 ],
 "samplers": [
  {
   "magFilter": 9729,
   "minFilter": 9987,
   "wrapS": 10497,
   "wrapT": 10497
  }
 ],
 "scene": 0,
 "scenes": [
  {
   "nodes": [
    0
   ]
  }
 ],
 "textures": [
  {
   "sampler": 0,
   "source": 0
  },
  {
   "sampler": 0,
   "source": 1
  }
 ]
}