{
 "accessors": [
  {
   "componentType": 5126,
   "type": "VEC3",
   "count": 4192,
   "max": [
    1.5946630239486694,
    -1.2172110080718994,
    2.3449690341949463
   ],
   "min": [
    -2.6343588829040527,
    -8.690896034240723,
    -1.492948055267334
   ],
   "bufferView": 3
  },
  {
   "componentType": 5126,
   "type": "VEC3",
   "count": 4192,
   "bufferView": 4
  },
  {
   "componentType": 5126,
   "type": "VEC2",
   "count": 4192,
   "bufferView": 5
  },
  {
   "componentType": 5123,
   "type": "SCALAR",
   "count": 6288,
   "bufferView": 6
  }
 ],
 "asset": {
  "version": "2.0",
  "generator": "clara.io"
 },
 "bufferViews": [
  {
   "buffer": 0,
   "byteOffset": 0,
   "byteLength": 228941
  },
  {
   "buffer": 0,
   "byteOffset": 228944,
   "byteLength": 1987947
  },
  {
   "buffer": 0,
   "byteOffset": 2216892,
   "byteLength": 118696
  },
  {
   "buffer": 0,
   "byteOffset": 2335588,
   "byteLength": 50304,
   "target": 34962,
   "byteStride": 12
  },
  {
   "buffer": 0,
   "byteOffset": 2385892,
   "byteLength": 50304,
   "target": 34962,
   "byteStride": 12
  },
  {
   "buffer": 0,
   "byteOffset": 2436196,
   "byteLength": 33536,
   "target": 34962,
   "byteStride": 8
  },
  {
   "buffer": 0,
   "byteOffset": 2469732,
   "byteLength": 12576,
   "target": 34963
  }
 ],
 "buffers": [
  {
   "byteLength": 2482308,
   "uri": "data:application/octet-stream;base64,"
  }
 ],
 "images": [
  {
   "name": "chrysalis.jpeg",
   "bufferView": 0,
   "mimeType": "image/jpeg"
  },
  {
   "name": "BASE_OPACITY_100.png",
   "bufferView": 1,
   "mimeType": "image/png"
  },
  {
   "name": "AO_ROUGH_METAL_101.jpg",
   "bufferView": 2,
   "mimeType": "image/jpeg"
  }
 ],
 "materials": [
  {
   "name": "name0Mat",
   "pbrMetallicRoughness": {
    "baseColorFactor": [
     0.8,
     0.8,
     0.8,
     1
    ],
    "baseColorTexture": {
     "index": 1,
     "texCoord": 0
    },
    "roughnessFactor": 0.3015,
    "metallicFactor": 0,
    "metallicRoughnessTexture": {
     "index": 2
    }
   },
   "emissiveTexture": {
    "index": 0
   },
   "emissiveFactor": [
    0.49019607843137253,
    0.8352941176470589,
    0.7490196078431373
   ],
   "alphaMode": "BLEND"
  }
 ],
 "meshes": [
  {
   "primitives": [
    {
     "indices": 3,
     "material": 0,
     "mode": 4,
     "attributes": {
      "POSITION": 0,
      "NORMAL": 1,
      "TEXCOORD_0": 2
     }
    }
   ]
  }
 ],
 "nodes": [
  {
   "name": "Crysalis_root",
   "translation": [
    0,
    1.1057000160217285,
    0
   ],
   "scale": [
    0.009999999776482582,
    0.009999999776482582,
    0.009999999776482582
   ],
   "children": [
    1
   ]
  },
  {
   "name": "name0",
   "rotation": [
    0,
    0.25881904618047663,
    0,
    0.9659258222660823
   ],
   "scale": [
    9.999999555673448,
    10,
    9.999999555673448
   ],
   "mesh": 0
  }
 ],
 "samplers": [
  {
   "magFilter": 9729,
   "minFilter": 9987,
   "wrapS": 10497,
   "wrapT": 10497
  }
 ],
 "scene": 0,
 "scenes": [
  {
   "nodes": [
    0
   ]
  }
 ],
 "textures": [
  {
   "sampler": 0,
   "source": 0
  },
  {
   "sampler": 0,
   "source": 1
  },
  {
   "sampler": 0,
   "source": 2
  }
 ]
}